<?xml version="1.0" encoding="UTF-8"?>
<svg id="Layer_2" xmlns="http://www.w3.org/2000/svg" viewBox="0 0 961.72 559.26">
  <defs>
    <style>
      .cls-1 {
        fill: #fff;
      }
    </style>
  </defs>
  <g id="Layer_1-2" data-name="Layer_1">
    <path class="cls-1" d="M262.84,132.48c-5.67,10.22-14.37,18.47-26.1,24.74-11.74,6.27-26.31,9.41-43.71,9.41h-32.17v76.48h-51.9V30.05h84.07c17,0,31.36,2.94,43.1,8.8,11.73,5.87,20.53,13.96,26.41,24.28,5.87,10.32,8.8,22.16,8.8,35.51,0,12.34-2.84,23.63-8.5,33.84ZM211.24,118.37c4.86-4.65,7.28-11.23,7.28-19.73s-2.43-15.07-7.28-19.73c-4.86-4.65-12.24-6.98-22.16-6.98h-28.23v53.42h28.23c9.91,0,17.3-2.32,22.16-6.98Z"/>
    <path class="cls-1" d="M465.58,73.75v169.36h-51.9v-23.07c-5.26,7.49-12.4,13.51-21.4,18.06-9.01,4.55-18.97,6.83-29.9,6.83-12.95,0-24.39-2.88-34.3-8.65-9.92-5.77-17.6-14.11-23.07-25.04-5.46-10.93-8.19-23.77-8.19-38.55v-98.94h51.6v91.96c0,11.33,2.93,20.14,8.8,26.41,5.87,6.27,13.76,9.41,23.67,9.41s18.11-3.13,23.98-9.41c5.87-6.27,8.8-15.07,8.8-26.41v-91.96h51.9Z"/>
    <path class="cls-1" d="M564.21,264.96c0,20.84-5.26,35.86-15.78,45.07-10.52,9.2-25.19,13.81-44.01,13.81h-20.33v-44.01h12.44c5.66,0,9.71-1.11,12.14-3.34,2.43-2.23,3.64-5.87,3.64-10.93V73.75h51.9v191.21ZM515.8,48.11c-5.77-5.36-8.65-11.99-8.65-19.88s2.88-14.82,8.65-20.18c5.77-5.36,13.2-8.04,22.31-8.04s16.24,2.68,22,8.04c5.77,5.36,8.65,12.09,8.65,20.18s-2.88,14.52-8.65,19.88c-5.77,5.36-13.1,8.04-22,8.04s-16.54-2.68-22.31-8.04Z"/>
    <path class="cls-1" d="M614.85,48.11c-5.77-5.36-8.65-11.99-8.65-19.88s2.88-14.82,8.65-20.18c5.77-5.36,13.2-8.04,22.31-8.04s16.24,2.68,22,8.04c5.77,5.36,8.65,12.09,8.65,20.18s-2.88,14.52-8.65,19.88c-5.77,5.36-13.1,8.04-22,8.04s-16.54-2.68-22.31-8.04ZM662.96,73.75l-.11,325.11h-51.79V73.75h51.9Z"/>
    <path class="cls-1" d="M855.95,91.2c11.84,12.85,17.75,30.5,17.75,52.96v98.94h-51.6v-91.96c0-11.33-2.94-20.13-8.8-26.4-5.87-6.27-13.76-9.41-23.67-9.41s-17.81,3.14-23.67,9.41c-5.87,6.27-8.8,15.08-8.8,26.4v91.96h-51.9V73.75h51.9v22.46c5.26-7.48,12.34-13.4,21.25-17.75,8.9-4.35,18.92-6.53,30.05-6.53,19.83,0,35.66,6.43,47.5,19.27Z"/>
    <path class="cls-1" d="M41.28,551.37c-12.34-5.06-22.21-12.54-29.59-22.46-7.39-9.91-11.28-21.85-11.69-35.81h55.24c.81,7.89,3.54,13.91,8.19,18.06,4.65,4.15,10.72,6.22,18.21,6.22s13.76-1.77,18.21-5.31c4.45-3.54,6.68-8.45,6.68-14.72,0-5.26-1.77-9.61-5.31-13.05-3.54-3.44-7.89-6.27-13.05-8.5-5.16-2.22-12.5-4.75-22-7.59-13.76-4.25-24.99-8.5-33.69-12.75-8.7-4.25-16.19-10.52-22.46-18.82-6.27-8.29-9.41-19.12-9.41-32.48,0-19.83,7.18-35.36,21.55-46.59,14.36-11.23,33.08-16.84,56.15-16.84s42.39,5.61,56.76,16.84c14.36,11.23,22.05,26.86,23.07,46.89h-56.15c-.41-6.88-2.94-12.29-7.59-16.24-4.66-3.95-10.62-5.92-17.91-5.92-6.27,0-11.33,1.67-15.18,5.01-3.85,3.34-5.77,8.15-5.77,14.42,0,6.88,3.23,12.24,9.71,16.09,6.47,3.85,16.59,8,30.35,12.44,13.76,4.66,24.94,9.11,33.54,13.35,8.6,4.25,16.03,10.42,22.31,18.51,6.27,8.1,9.41,18.51,9.41,31.26s-3.09,23.17-9.26,33.08c-6.17,9.92-15.13,17.81-26.86,23.67-11.74,5.87-25.6,8.8-41.58,8.8s-29.54-2.53-41.88-7.59Z"/>
    <path class="cls-1" d="M282.26,512.83v44.01h-26.41c-18.82,0-33.49-4.6-44.01-13.81-10.52-9.2-15.78-24.23-15.78-45.07v-67.38h-20.64v-43.1h20.64v-41.28h51.9v41.28h33.99v43.1h-33.99v67.99c0,5.06,1.21,8.7,3.64,10.93,2.43,2.23,6.47,3.34,12.14,3.34h18.51Z"/>
    <path class="cls-1" d="M465.58,387.48v169.36h-51.9v-23.07c-5.26,7.49-12.4,13.51-21.4,18.06-9.01,4.55-18.97,6.83-29.9,6.83-12.95,0-24.39-2.88-34.3-8.65-9.92-5.77-17.6-14.11-23.07-25.04-5.46-10.93-8.19-23.77-8.19-38.55v-98.94h51.6v91.96c0,11.33,2.93,20.14,8.8,26.41,5.87,6.27,13.76,9.41,23.67,9.41s18.11-3.13,23.98-9.41c5.87-6.27,8.8-15.07,8.8-26.41v-91.96h51.9Z"/>
    <path class="cls-1" d="M493.95,426.03c6.57-13.15,15.53-23.27,26.86-30.35,11.33-7.08,23.98-10.62,37.94-10.62,11.13,0,21.29,2.33,30.5,6.98,9.2,4.66,16.44,10.93,21.7,18.82v-78.61h51.9v224.59h-51.9v-24.28c-4.86,8.09-11.79,14.57-20.79,19.42-9.01,4.86-19.48,7.28-31.41,7.28-13.96,0-26.61-3.59-37.94-10.77-11.33-7.18-20.29-17.4-26.86-30.65-6.58-13.25-9.86-28.58-9.86-45.98s3.29-32.67,9.86-45.83ZM600.18,441.5c-7.18-7.48-15.93-11.23-26.25-11.23s-19.07,3.69-26.25,11.08c-7.18,7.39-10.77,17.56-10.77,30.5s3.59,23.22,10.77,30.81c7.18,7.59,15.93,11.38,26.25,11.38s19.07-3.74,26.25-11.23c7.18-7.48,10.77-17.7,10.77-30.65s-3.59-23.17-10.77-30.65Z"/>
    <path class="cls-1" d="M713.9,361.83c-5.77-5.36-8.65-11.99-8.65-19.88s2.88-14.82,8.65-20.18c5.77-5.36,13.2-8.04,22.31-8.04s16.24,2.68,22,8.04c5.77,5.36,8.65,12.09,8.65,20.18s-2.88,14.52-8.65,19.88c-5.77,5.36-13.1,8.04-22,8.04s-16.54-2.68-22.31-8.04ZM762.01,387.48v169.36h-51.9v-169.36h51.9Z"/>
    <path class="cls-1" d="M828.33,548.64c-13.25-7.08-23.67-17.2-31.26-30.35-7.59-13.15-11.38-28.53-11.38-46.13s3.84-32.73,11.53-45.98c7.69-13.25,18.21-23.42,31.56-30.5,13.35-7.08,28.33-10.62,44.92-10.62s31.56,3.54,44.92,10.62c13.35,7.08,23.87,17.25,31.56,30.5,7.69,13.25,11.53,28.58,11.53,45.98s-3.9,32.73-11.69,45.98c-7.79,13.25-18.41,23.42-31.87,30.5-13.46,7.08-28.48,10.62-45.07,10.62s-31.52-3.54-44.77-10.62ZM898.44,503.42c6.98-7.28,10.47-17.7,10.47-31.26s-3.39-23.98-10.17-31.26c-6.78-7.28-15.13-10.93-25.04-10.93s-18.51,3.59-25.19,10.77c-6.68,7.18-10.02,17.66-10.02,31.41s3.29,23.98,9.86,31.26c6.57,7.28,14.82,10.93,24.74,10.93s18.36-3.64,25.34-10.93Z"/>
  </g>
</svg>